<svg xmlns="http://www.w3.org/2000/svg" xmlns:xlink="http://www.w3.org/1999/xlink" width="47.329" height="47.329" viewBox="0 0 47.329 47.329">
  <defs>
    <linearGradient id="linear-gradient" y1="23.6645" x2="47.329" y2="23.6645" gradientUnits="userSpaceOnUse">
      <stop offset="0" stop-color="#1be020"/>
      <stop offset="1" stop-color="#17e56a"/>
    </linearGradient>
  </defs>
  <title>Asset 29</title>
  <g id="Layer_2" data-name="Layer 2">
    <g id="Layer_1-2" data-name="Layer 1">
      <path d="M23.6645,0A23.6645,23.6645,0,1,0,47.329,23.6645,23.6645,23.6645,0,0,0,23.6645,0ZM9.1442,24.3714q-.0426-.5992-.0426-1.0279a13.6778,13.6778,0,0,1,4.1713-10.2106A14.4021,14.4021,0,0,1,23.6643,9.1016,14.4733,14.4733,0,0,1,29.96,10.5157,14.7545,14.7545,0,0,1,34.878,14.24l1.2772,1.5H23.6643a7.7559,7.7559,0,0,0-5.5952,2.2381A7.0816,7.0816,0,0,0,15.74,23.3435a4.4726,4.4726,0,0,1-.1946,1.2128c-.1005.348-.1743.6448-.224.8924l-.1458.7324H8.9025l.2168-1.088A2.8067,2.8067,0,0,0,9.1442,24.3714Zm24.8911,9.5239a13.9387,13.9387,0,0,1-10.371,4.3318,15.1764,15.1764,0,0,1-6.4467-1.41,11.0565,11.0565,0,0,1-4.67-3.814l-.9431-1.4151h12.06a7.3638,7.3638,0,0,0,5.526-2.4891,8.0233,8.0233,0,0,0,2.398-5.7557.4486.4486,0,0,0-.0168-.1534,1.6981,1.6981,0,0,1-.2062-1.31l.1457-.7324h6.18l.2294.5711a4.1021,4.1021,0,0,1,.2542.8324,4.8867,4.8867,0,0,1,.0524.792A14.6483,14.6483,0,0,1,34.0353,33.8953Z" style="fill: url(#linear-gradient)"/>
    </g>
  </g>
</svg>
